<svg id="Flag" xmlns="http://www.w3.org/2000/svg" width="69" height="46" viewBox="0 0 69 46"><title>Artboard 1</title><g id="CA"><rect id="bg" width="69" height="46.05" style="fill:#fff"/><path id="red" d="M34.5,6.8l-2.62,4.88c-.3.53-.83.48-1.36.19l-1.9-1L30,18.39c.29,1.37-.66,1.37-1.13.77l-3.31-3.7-.53,1.88a.64.64,0,0,1-.75.44l-4.18-.87,1.1,4c.23.89.42,1.26-.24,1.49l-1.49.7,7.2,5.85a.94.94,0,0,1,.33,1L26.41,32c2.48-.29,4.7-.72,7.18-1a.71.71,0,0,1,.59.57l-.33,7.56h1.2l-.19-7.54c0-.25.33-.62.55-.6,2.48.26,4.7.7,7.18,1L42,29.92a.94.94,0,0,1,.33-1l7.2-5.85L48,22.39c-.66-.23-.47-.6-.24-1.49l1.1-4-4.18.88a.64.64,0,0,1-.74-.45l-.54-1.88-3.31,3.7c-.47.6-1.42.6-1.13-.77l1.42-7.5-1.9,1c-.53.29-1.06.34-1.36-.19ZM15.35,46.05H0V0H15.35Zm53.65,0H53.65V0H69Z" style="fill:red"/></g></svg>