<svg id="MX" data-name="MX" xmlns="http://www.w3.org/2000/svg" width="69" height="46" viewBox="0 0 69 46"><title>MX</title><g id="Flags"><g id="MX_flat_illustration" data-name="MX flat illustration"><rect width="23" height="46" style="fill:#006847"/><rect x="23" width="23" height="46" style="fill:#fff"/><rect x="46" width="23" height="46" style="fill:#ce1126"/><path d="M43.21,22.16c-.31-.09-.69.3-.84.87a1.27,1.27,0,0,0,.11,1c-.07.19-.14.39-.21.57a1.4,1.4,0,0,0-.79.65,1.09,1.09,0,0,0-.12,1.25,10.48,10.48,0,0,1-.64.86,1.37,1.37,0,0,0-1,.31c-.46.34-.69.81-.57,1.12a6.88,6.88,0,0,1-1,.6A1.28,1.28,0,0,0,37,29.3a1.41,1.41,0,0,0-.85.6l-.55,0-.43-.63h.36a.72.72,0,0,0,.32-.08A7.16,7.16,0,0,1,37,28.5l.41.09h.05a.23.23,0,0,0,.22-.18.23.23,0,0,0-.17-.28L37,28l1-.18a.23.23,0,0,0-.08-.46l-1.51.27-.22-.3a.53.53,0,0,0-.39-.21,1.65,1.65,0,0,1,1.61-.32.3.3,0,0,0,.05.16c.19.34.79.35,1.33,0a1.25,1.25,0,0,0,.7-1,.82.82,0,0,0,.49-.29c.25-.28.31-.63.14-.79s-.51-.05-.76.23a1,1,0,0,0-.22.42,1.42,1.42,0,0,0-1,.19,1.8,1.8,0,0,0-.52.45l-.38-.07a.6.6,0,0,0,.06-.19.5.5,0,0,0,0-.21.49.49,0,0,0,.26-.37c0-.09,0-.22-.24-.32a7.63,7.63,0,0,1-.84-.49,1.59,1.59,0,0,0,.26-.26c.54.65.69.65.74.65A7.66,7.66,0,0,0,40,24.52a.17.17,0,0,0,.1-.12.18.18,0,0,0-.06-.14c-1.11-.83-2.79-2.1-2.9-2.21a1.24,1.24,0,0,1-.26-.74,1.1,1.1,0,0,0-.21-.5,1.09,1.09,0,0,1-.08-.15l.08,0a3.28,3.28,0,0,1,1.14,1.07c.16.21.21.29.34.25a.18.18,0,0,0,.11-.16,1,1,0,0,0,0-.19c.14.38.18.47.29.5a.17.17,0,0,0,.15-.05c.07-.07.08-.66.1-.52.07.62.08.7.22.73a.17.17,0,0,0,.17-.09,1.73,1.73,0,0,0,.05-.51l0,.2c.12,1.1.13,1.19.3,1.2s.15,0,.18-.17a7,7,0,0,0,0-1c0-.28.1-.15.12.29,0,.23,0,.45,0,.65.05,1,.05,1.11.22,1.13s.15,0,.2-.15a10,10,0,0,0,.12-1.52c0-.34.14-.43.16-.06.06,1,0,2.05,0,2.07a.15.15,0,0,0,.14.15.15.15,0,0,0,.17-.12,26.54,26.54,0,0,0,.46-3.56,7.5,7.5,0,0,0-2.12-4.33,7.71,7.71,0,0,0-3.85-1.88,2.3,2.3,0,0,0-1.65.36.57.57,0,0,0-.2.41c0,.24.22.34.47.46a2.17,2.17,0,0,1,.87.63.59.59,0,0,1,0,.47.42.42,0,0,1-.16.24.46.46,0,0,1-.1-.23,1.82,1.82,0,0,0-1.51-1.17.48.48,0,0,0-.28-.19c-.31-.07-.72.13-1.22.6s-.64.59-.55.75a2.68,2.68,0,0,1-.31.41l-.13.16c-.26-.07-.75-.21-.8-.33a.07.07,0,0,1,0-.05.78.78,0,0,1,.41-.22.32.32,0,0,0,.24-.37.31.31,0,0,0-.37-.23,1.35,1.35,0,0,0-.8.49.66.66,0,0,0-.08.53c.11.44.62.6,1.17.76a1.42,1.42,0,0,0,0,.2c.15.38.69.46.71.46a.16.16,0,0,0,.13,0l.16-.15c0,.22-.22.41-.59.68a2,2,0,0,0-1,1.54c0,1.06,1,1.11,1.55,1.15a2.3,2.3,0,0,1,.47.05.12.12,0,0,1,.07.11.37.37,0,0,1,0,.16,1.06,1.06,0,0,0-.76-.12.63.63,0,0,0-.4.67.89.89,0,0,0,0,.14,1.14,1.14,0,0,1-.45,0c-.08-.05-.08-.05-.08-.21A1.3,1.3,0,0,0,30,22a1,1,0,0,0-.37-.31c-.2-.11-.34-.2-.35-.32a.86.86,0,0,1,.14-.37,1,1,0,0,0,.15-.87c-.2-.5-1.05-.68-1.31-.72a.3.3,0,0,0-.35.25.29.29,0,0,0,.25.35,1.58,1.58,0,0,1,.84.35c0,.07,0,.18-.12.34a1.39,1.39,0,0,0-.21.73,1.09,1.09,0,0,0,.65.79l.17.11a.73.73,0,0,1,.11.45.75.75,0,0,0,.36.72.85.85,0,0,0,.43.1,2.52,2.52,0,0,0,.85-.18h0c.53.07,2.57.6,2.59.61a.16.16,0,0,0,.15,0l.34-.34a4.69,4.69,0,0,0,1,.92,4.58,4.58,0,0,1-.41.51.84.84,0,0,0-.34.22,1.94,1.94,0,0,0-.93-.34,1.53,1.53,0,0,0-1.33.38c-.06-.36-.53-.68-1.13-.75a1.74,1.74,0,0,0-.91.13,1.34,1.34,0,0,0-.6-1,1.39,1.39,0,0,0-1-.3.9.9,0,0,0,0-.51c-.1-.36-.36-.61-.58-.54s-.32.4-.22.77a.76.76,0,0,0,.44.54c-.15.32.08.84.56,1.19a1.41,1.41,0,0,0,1,.3c0,.4.48.79,1.14.86a1.4,1.4,0,0,0,1.17-.32c0,.42.58.8,1.27.87a1.9,1.9,0,0,0,.94-.11v.54l-1.38,0a.59.59,0,0,0-.4.15l-.28.12-.12-.21a6.62,6.62,0,0,1-.29-.68.23.23,0,1,0-.43.15,4.93,4.93,0,0,0,.27.66l-2.25-1.09a.23.23,0,0,0-.31.1.23.23,0,0,0,.11.31l1.77.87h-.75a.23.23,0,0,0-.23.23.23.23,0,0,0,.23.23h1A4.65,4.65,0,0,1,32,28a1.94,1.94,0,0,1,.29.21l-1,.27a.24.24,0,0,0-.17.28.23.23,0,0,0,.23.17h.06l1.32-.35a6.33,6.33,0,0,1,.49.55.68.68,0,0,0,.47.19H34v.64l-.53,0a2.24,2.24,0,0,0-1.37-.52,3.18,3.18,0,0,0-1.14.05,5.38,5.38,0,0,1-1.14-.59,1.67,1.67,0,0,0-.43-.88,1.38,1.38,0,0,0-1-.57c-.22-.28-.48-.62-.77-1a1.37,1.37,0,0,0-.21-.78,1.23,1.23,0,0,0-.66-.61,4.56,4.56,0,0,1-.4-1.33.51.51,0,0,1,0-.13,1.49,1.49,0,0,0,.28-.62c.11-.5,0-.94-.2-1s-.5.31-.62.8,0,.94.21,1h0a5.35,5.35,0,0,0,.44,1.42,1.25,1.25,0,0,0,.2.87c.23.39.54.64.74.62l.72,1a1.29,1.29,0,0,0,.4,1.1c.41.48.93.71,1.16.51l0,0a5.54,5.54,0,0,0,.86.47.28.28,0,0,0-.07.13c0,.31.61.63,1.45.72a1.92,1.92,0,0,0,1.52-.26l.38,0-.74.62A.16.16,0,0,0,33,31a.16.16,0,0,0,.09.12l.76.38.07,0a.21.21,0,0,0,.11,0l.44-.45.59.46a.13.13,0,0,0,.16,0l.85-.46a.18.18,0,0,0,.07-.1.17.17,0,0,0,0-.12l-.4-.59H36a.11.11,0,0,0,0,.05c.1.36.67.51,1.27.33s1-.53.92-.87a7.69,7.69,0,0,0,1.14-.65,1.25,1.25,0,0,0,1.15-.27c.5-.37.73-.92.51-1.21l0-.05a9,9,0,0,0,.64-.86,1.23,1.23,0,0,0,1-.67c.34-.53.36-1.12,0-1.32l-.06,0c.06-.14.11-.3.17-.45.29,0,.61-.37.74-.88S43.52,22.24,43.21,22.16Zm-11.76-.82c-.73,0-1-.12-1-.53s.37-.75.77-1,.84-.63.84-1.17a.66.66,0,0,0-.13-.4c.33-.24.6-.39.68-.36s0,.62-.12,1a2.42,2.42,0,0,0-.23,1.88,3.21,3.21,0,0,0,.46.9,1.09,1.09,0,0,1,.22.4c.07.2.08.34,0,.4s-.27.09-.43.09h-.11a1,1,0,0,0,.09-.41.7.7,0,0,0-.42-.66A2,2,0,0,0,31.45,21.34Z" style="fill:#8f4620"/></g></g></svg>