<svg id="Flag" xmlns="http://www.w3.org/2000/svg" width="69" height="46" viewBox="0 0 69 46"><title>Artboard 1</title><g id="US"><rect id="bg" width="69" height="46.05" style="fill:#fff"/><path id="stripes" d="M34.92,0H69V3.53H34.92Zm0,7.06H69v3.53H34.92Zm0,7.06H69v3.53H34.92Zm0,7.06H69v3.61H34.92ZM0,28.32H69v3.53H0Zm0,7.06H69v3.53H0Zm0,7.06H69v3.61H0Z" style="fill:#b22234"/><rect id="stars-bg" width="34.92" height="24.79" style="fill:#3c3b6e"/><path id="stars" d="M3.47,2.59,4.3,2h-1L3,1,2.64,2h-1l.83.59-.32,1L3,3l.84.61Zm5.8,0L10.11,2h-1L8.76,1,8.44,2h-1l.83.59-.32,1L8.76,3l.83.61Zm5.81,0L15.91,2h-1l-.32-1-.32,1h-1l.84.59-.32,1L14.56,3l.84.61Zm5.8,0L21.71,2h-1l-.32-1-.31,1H19l.84.59-.32,1L20.36,3l.84.61Zm5.8,0L27.51,2h-1l-.31-1-.32,1h-1l.83.59-.32,1L26.17,3l.83.61Zm5.8,0L33.32,2h-1L32,1l-.32,1h-1l.83.59-.31,1L32,3l.83.61ZM6.37,5.07l.84-.62h-1l-.32-1-.32,1h-1l.83.62L5,6.06l.84-.6.83.6Zm5.81,0L13,4.45H12l-.32-1-.32,1h-1l.84.62-.32,1,.83-.6.83.6Zm5.8,0,.83-.62h-1l-.32-1-.32,1h-1l.84.62-.32,1,.83-.6.84.6Zm5.8,0,.83-.62h-1l-.32-1-.31,1h-1l.83.62-.32,1,.83-.6.84.6Zm5.8,0,.84-.62h-1l-.32-1-.32,1h-1l.83.62-.32,1,.84-.6.83.6ZM3.47,7.59,4.3,7h-1L3,6,2.64,7h-1l.83.61-.32,1L3,8l.84.6Zm5.8,0L10.11,7h-1L8.76,6,8.44,7h-1l.83.61-.32,1L8.76,8l.83.6Zm5.81,0L15.91,7h-1l-.32-1-.32,1h-1l.84.61-.32,1,.83-.6.84.6Zm5.8,0L21.71,7h-1l-.32-1-.31,1H19l.84.61-.32,1,.83-.6.84.6Zm5.8,0L27.51,7h-1l-.31-1-.32,1h-1l.83.61-.32,1,.84-.6.83.6Zm5.8,0L33.32,7h-1L32,6l-.32,1h-1l.83.61-.31,1L32,8l.83.6ZM6.37,10.07l.84-.63h-1l-.32-1-.32,1h-1l.83.63-.32,1,.84-.6.83.59Zm5.81,0L13,9.44H12l-.32-1-.32,1h-1l.84.63-.32,1,.83-.6.83.59Zm5.8,0,.83-.63h-1l-.32-1-.32,1h-1l.84.63-.32,1,.83-.6.84.59Zm5.8,0,.83-.63h-1l-.32-1-.31,1h-1l.83.63-.32,1,.83-.6.84.59Zm5.8,0,.84-.63h-1l-.32-1-.32,1h-1l.83.63-.32,1,.84-.6.83.59ZM3.47,12.6,4.3,12h-1L3,11l-.31,1h-1l.83.63-.32,1L3,13l.84.6Zm5.8,0,.84-.63h-1l-.32-1-.32,1h-1l.83.63-.32,1,.84-.6.83.6Zm5.81,0,.83-.63h-1l-.32-1-.32,1h-1l.84.63-.32,1,.83-.6.84.6Zm5.8,0,.83-.63h-1l-.32-1-.31,1H19l.84.63-.32,1,.83-.6.84.6Zm5.8,0,.83-.63h-1l-.31-1-.32,1h-1l.83.63-.32,1,.84-.6.83.6Zm5.8,0,.84-.63h-1L32,11l-.32,1h-1l.83.63-.31,1L32,13l.83.6ZM6.37,15.11l.84-.6h-1l-.32-1-.32,1h-1l.83.6-.32,1,.84-.6.83.6Zm5.81,0,.83-.6H12l-.32-1-.32,1h-1l.84.6-.32,1,.83-.6.83.6Zm5.8,0,.83-.6h-1l-.32-1-.32,1h-1l.84.6-.32,1,.83-.6.84.6Zm5.8,0,.83-.6h-1l-.32-1-.31,1h-1l.83.6-.32,1,.83-.6.84.6Zm5.8,0,.84-.6h-1l-.32-1-.32,1h-1l.83.6-.32,1,.84-.6.83.6ZM3.47,17.64,4.3,17h-1l-.32-1-.31,1h-1l.83.6-.32,1L3,18l.84.61Zm5.8,0,.84-.6h-1l-.32-1-.32,1h-1l.83.6-.32,1L8.76,18l.83.61Zm5.81,0,.83-.6h-1l-.32-1-.32,1h-1l.84.6-.32,1,.83-.61.84.61Zm5.8,0,.83-.6h-1l-.32-1-.31,1H19l.84.6-.32,1,.83-.61.84.61Zm5.8,0,.83-.6h-1l-.31-1-.32,1h-1l.83.6-.32,1,.84-.61.83.61Zm5.8,0,.84-.6h-1l-.32-1-.32,1h-1l.83.6-.31,1L32,18l.83.61ZM6.37,20.12l.84-.62h-1l-.32-1-.32,1h-1l.83.62L5,21.1l.84-.6.83.6Zm5.81,0L13,19.5H12l-.32-1-.32,1h-1l.84.62-.32,1,.83-.6.83.6Zm5.8,0,.83-.62h-1l-.32-1-.32,1h-1l.84.62-.32,1,.83-.6.84.6Zm5.8,0,.83-.62h-1l-.32-1-.31,1h-1l.83.62-.32,1,.83-.6.84.6Zm5.8,0,.84-.62h-1l-.32-1-.32,1h-1l.83.62-.32,1,.84-.6.83.6ZM3.47,22.64,4.3,22h-1l-.32-1-.31,1h-1l.83.61-.32,1L3,23l.84.61Zm5.8,0,.84-.61h-1l-.32-1-.32,1h-1l.83.61-.32,1L8.76,23l.83.61Zm5.81,0,.83-.61h-1l-.32-1-.32,1h-1l.84.61-.32,1,.83-.61.84.61Zm5.8,0,.83-.61h-1l-.32-1-.31,1H19l.84.61-.32,1,.83-.61.84.61Zm5.8,0,.83-.61h-1l-.31-1-.32,1h-1l.83.61-.32,1,.84-.61.83.61Zm5.8,0,.84-.61h-1l-.32-1-.32,1h-1l.83.61-.31,1L32,23l.83.61Z" style="fill:#fff"/></g></svg>