<svg id="Flag" xmlns="http://www.w3.org/2000/svg" width="69" height="46" viewBox="0 0 69 46"><title>Artboard 1</title><g id="UK"><rect id="bg" x="0.04" y="0.02" width="68.92" height="46" style="fill:#fff"/><path id="blue" d="M15.26,30.69,0,40.82V30.69ZM7.74,46h21V32ZM61.26,0l-21,14V0ZM53.74,15.35H69V5.14ZM69,30.69V40.82L53.74,30.69ZM40.21,32V46h21ZM28.71,0V14L7.74,0ZM0,5.14V15.35H15.26Z" style="fill:#00247d"/><path id="red" d="M17.94,15.35,0,3.35V0L23,15.35ZM69,0H63.94l-23,15.33H46ZM0,46H5.06l23-15.33H23ZM46,30.69,69,46V42.61L51.06,30.69ZM37.91,0H31v18.4H0v9.2H31V46h6.9V27.62H69v-9.2h-31Z" style="fill:#cf142b"/></g></svg>