<svg id="ES" data-name="ES" xmlns="http://www.w3.org/2000/svg" width="69" height="46" viewBox="0 0 69 46"><title>ES</title><g id="Flags"><g id="ES_flat_illustration" data-name="ES"><rect width="69" height="46" style="fill:#c60b1e"/><rect y="11.5" width="69" height="23" style="fill:#ffc400"/><path d="M25.91,20.39v-1l.31,0a1.41,1.41,0,0,0,1.53-1,1.39,1.39,0,0,0,.23-.77,1.66,1.66,0,0,0-1.76-1.53,1.91,1.91,0,0,0-.8.17,1.6,1.6,0,0,0-1.35-.71A1.63,1.63,0,0,0,23,16a1.65,1.65,0,0,0-2.41.28,1.94,1.94,0,0,0-.73-.14,1.66,1.66,0,0,0-1.77,1.53,1.4,1.4,0,0,0,.24.77c.05.56.72,1,1.53,1l.23,0v1c0,.22,1.3.39,2.91.39S25.91,20.61,25.91,20.39ZM21,17.15l-.22.16a1.11,1.11,0,0,1,0-.42A1.32,1.32,0,0,1,21,17.15Zm4.2,0a.75.75,0,0,1,0,.21L25,17.19a.81.81,0,0,1,.17-.24A.76.76,0,0,1,25.22,17.1Zm1-.54a1.2,1.2,0,0,1,1.3,1.07v.12a1.78,1.78,0,0,0-1.3-.5,2.52,2.52,0,0,0-.56.07.82.82,0,0,0,0-.22,1.42,1.42,0,0,0-.06-.42A1.46,1.46,0,0,1,26.22,16.56ZM25,16.5a1.69,1.69,0,0,0-.41.48,4.29,4.29,0,0,0-1.13-.25,1.49,1.49,0,0,0-.19-.43,1.23,1.23,0,0,1,.77-.28A1.18,1.18,0,0,1,25,16.5ZM21.93,16a1.23,1.23,0,0,1,.77.28,1.49,1.49,0,0,0-.19.43,4.47,4.47,0,0,0-1.07.23,1.59,1.59,0,0,0-.44-.49A1.18,1.18,0,0,1,21.93,16Zm-2.07.54a1.55,1.55,0,0,1,.53.09,1.33,1.33,0,0,0-.07.45,1.27,1.27,0,0,0,0,.2,2.42,2.42,0,0,0-.47-.05,1.76,1.76,0,0,0-1.3.5s0-.08,0-.12A1.21,1.21,0,0,1,19.86,16.56Zm3-1.76h-.23v-.31h.23v-.23h.3v.23h.23v.31h-.23v.35a.31.31,0,0,1,.16.26.31.31,0,1,1-.62,0,.31.31,0,0,1,.16-.26Zm8.69,12a2.68,2.68,0,0,0-.87-.49v-.56a1.31,1.31,0,0,0,.76-.34.8.8,0,0,0,.23-.65v0c0-.37-.42-.76-1-1V21.39h.23v-.54h-.46l.17-.4c.23-.09.29-.21.29-.29s-.07-.43-.92-.45v-.39h-.23v.39c-.85,0-.92.33-.92.45s.05.2.28.29l.18.4h-.46v.54h.23v2.13a5.8,5.8,0,0,0-1.38.25v-3H18.4v3a6.15,6.15,0,0,0-1.46-.27V21.39h.23v-.54h-.46l.18-.4c.23-.09.28-.21.28-.29s-.07-.43-.92-.45v-.39H16v.39c-.85,0-.92.33-.92.45s.06.2.29.29l.17.4H15.1v.54h.23v2.36c-.57.25-1,.64-1,1v0a.8.8,0,0,0,.23.65,1.31,1.31,0,0,0,.76.34v.56a2.68,2.68,0,0,0-.87.49,1.12,1.12,0,0,0-.11,1.51.46.46,0,0,0,.37.18.49.49,0,0,0,.28-.09.47.47,0,0,0,.09-.65c-.06-.08-.11-.15,0-.31l.21-.11v2.39H15.1v.53h-.38v1.31h2.84V30.28h-.39v-.53h-.23V26.6c.78-.38,1-.59,1-.92,0-.5-.49-.67-1-.73v-.51a5.89,5.89,0,0,1,1.46.32V29s.08,2.68,4.6,2.68S27.68,29,27.68,29V24.73a5.76,5.76,0,0,1,1.38-.29V25c-.51.06-1,.23-1,.73,0,.33.22.54,1,.92v3.15h-.23v.53h-.39v1.31h2.84V30.28H30.9v-.53h-.23V27.36a1,1,0,0,1,.21.11c.14.16.09.23,0,.31a.46.46,0,0,0,.1.65.44.44,0,0,0,.27.09.46.46,0,0,0,.37-.18A1.12,1.12,0,0,0,31.54,26.83Z" style="fill:#c60b1e"/></g></g></svg>