<svg id="ICON" xmlns="http://www.w3.org/2000/svg" viewBox="0 0 168 128"><defs><style>.cls-1{fill:#fff;}</style></defs><title>green-energie_white</title><g id="hand-certificate"><path class="cls-1" d="M41,128H27a6,6,0,0,1-6-6V88a6,6,0,0,1,6-6H41a6,6,0,0,1,6,6v34A6,6,0,0,1,41,128ZM27,86a2,2,0,0,0-2,2v34a2,2,0,0,0,2,2H41a2,2,0,0,0,2-2V88a2,2,0,0,0-2-2Z"/><circle class="cls-1" cx="33" cy="114" r="2"/><path class="cls-1" d="M103,104H77a2,2,0,0,1,0-4h26a4,4,0,0,0,0-8H77a2,2,0,0,1-.89-.21C76,91.75,68.41,88,61,88s-15,3.75-15.11,3.79A2,2,0,1,1,44,88.26l.11-.05C44.45,88,52.62,84,61,84c7.38,0,14.61,3.14,16.45,4H103a8,8,0,0,1,0,16Z"/><path class="cls-1" d="M104.34,124.09h-.13L44.86,120a2,2,0,0,1,.28-4l58.73,4.06L143,97.46a4,4,0,0,0-4-6.92l-.28.13-33.56,13a2,2,0,0,1-1.68-3.63,1.09,1.09,0,0,1,.23-.09l33.43-13a8,8,0,0,1,7.86,14l-39.66,22.9A2,2,0,0,1,104.34,124.09Z"/></g><path class="cls-1" d="M91.75,51c-3.68,0-9.06-1-14.76-5.71h0C66.85,37,68.12,27.41,68.18,27a2,2,0,0,1,1.3-1.59c.38-.14,9.49-3.27,19.63,5S98,48.26,97.92,48.67a2,2,0,0,1-1.3,1.59A15.76,15.76,0,0,1,91.75,51ZM79.52,42.2c6.35,5.19,12,5,14.48,4.64-.09-2.48-1.07-8.07-7.42-13.27s-12-5-14.48-4.64C72.19,31.41,73.17,37,79.52,42.2Z"/><path class="cls-1" d="M119.27,60.88A15.45,15.45,0,0,1,109.86,58a2,2,0,0,1-.69-1.94c.07-.33,1.75-8.06,11.83-11.62s16.23,1.41,16.49,1.62a2,2,0,0,1,.69,1.94c-.07.33-1.75,8.06-11.83,11.61h0A20.85,20.85,0,0,1,119.27,60.88Zm-5.73-5.28c1.83.93,5.8,2.24,11.48.23h0c5.68-2,8-5.51,8.79-7.39-1.83-.93-5.8-2.24-11.48-.24S114.38,53.72,113.54,55.6Z"/><path class="cls-1" d="M135.63,88.54c-1.59-4.28-4.07-7.13-7.35-8.48-4.62-1.89-9.68-.24-12.62,1-4.24-6-9.07-7.79-12.72-8.16a113.75,113.75,0,0,1,2.42-21.21A91.22,91.22,0,0,1,111.63,32,2,2,0,0,0,108,30.36l0,.1a94.47,94.47,0,0,0-6.48,20.36A119,119,0,0,0,98.93,73a23.55,23.55,0,0,0-13.11,7c-9.25-4.22-16.12,2-18.54,6.13a2,2,0,0,0,3.44,2c.56-.93,5.71-9,14.61-3.93a2,2,0,0,0,2.57-.53c2.31-3,8.18-7.1,14-6.84,4.41.21,8.22,2.84,11.31,7.81a2,2,0,0,0,2.55.75c2.09-1,7-3.27,11-1.64,2.21.91,3.93,3,5.12,6.18a2,2,0,0,0,1.87,1.3,1.85,1.85,0,0,0,.7-.13A2,2,0,0,0,135.63,88.54Z"/><path class="cls-1" d="M119.1,34.94a24.81,24.81,0,0,1-10.16-2.08,2,2,0,0,1-1.08-1.41c-.12-.6-2.71-14.75,11-25.18S145.43,2.06,146,2.33a2,2,0,0,1,1.08,1.41c.12.59,2.71,14.74-11,25.17A27.59,27.59,0,0,1,119.1,34.94Zm-7.44-5.27c3,1.08,12.22,3.54,22-3.94s9.83-17.1,9.58-20.21C140.3,4.43,131,2,121.23,9.45h0C111.51,16.89,111.41,26.55,111.66,29.67ZM120,7.86Z"/></svg>